<svg xmlns="http://www.w3.org/2000/svg" xmlns:xlink="http://www.w3.org/1999/xlink" height="32" width="32"><defs><linearGradient id="i"><stop offset="0" stop-color="#c00"/><stop offset="1" stop-color="#c00" stop-opacity="0"/></linearGradient><linearGradient y2="42.728" x2="16.806" y1="20.62" x1="16.806" gradientTransform="matrix(1.06348 0 0 1.24843 -1.362 -24.543)" gradientUnits="userSpaceOnUse" id="p" xlink:href="#a"/><linearGradient id="a"><stop offset="0" stop-color="#fff"/><stop offset=".056" stop-color="#fff" stop-opacity=".235"/><stop offset=".944" stop-color="#fff" stop-opacity=".157"/><stop offset="1" stop-color="#fff" stop-opacity=".392"/></linearGradient><linearGradient id="f"><stop offset="0" stop-color="#181818"/><stop offset="1" stop-color="#181818" stop-opacity="0"/></linearGradient><linearGradient id="e"><stop offset="0" stop-color="#181818"/><stop offset="1" stop-color="#181818" stop-opacity="0"/></linearGradient><linearGradient id="d"><stop offset="0" stop-color="#181818" stop-opacity="0"/><stop offset=".5" stop-color="#181818"/><stop offset="1" stop-color="#181818" stop-opacity="0"/></linearGradient><linearGradient gradientTransform="matrix(.4902 0 0 .49153 -.176 -485.55)" gradientUnits="userSpaceOnUse" y2="1048.362" x2="33" y1="988.362" x1="33" id="n" xlink:href="#b"/><linearGradient id="c"><stop offset="0" stop-color="#505050"/><stop offset=".262" stop-color="#2b2b2b"/><stop offset=".705" stop-color="#0a0a0a"/><stop offset="1"/></linearGradient><radialGradient xlink:href="#c" id="q" gradientUnits="userSpaceOnUse" gradientTransform="matrix(0 5.3904 -5.46679 0 70.838 -45.677)" cx="7.118" cy="9.957" fx="7.118" fy="9.957" r="12.672"/><linearGradient gradientTransform="matrix(.46667 0 0 .4717 .6 -465.36)" gradientUnits="userSpaceOnUse" y2="991.362" x2="33" y1="1045.362" x1="33" id="o" xlink:href="#a"/><linearGradient id="b"><stop offset="0" stop-color="#f0f0f0"/><stop offset=".086" stop-color="#d7d7d8"/><stop offset=".922" stop-color="#b2b2b3"/><stop offset="1" stop-color="#979798"/></linearGradient><linearGradient y2="39.999" x2="25.058" y1="47.028" x1="25.058" gradientTransform="matrix(.71429 0 0 .42857 -1.19 1031.22)" gradientUnits="userSpaceOnUse" id="m" xlink:href="#d"/><radialGradient r="2.5" fy="43.5" fx="4.993" cy="43.5" cx="4.993" gradientTransform="matrix(1.58194 0 0 .6 -13.851 -1075.962)" gradientUnits="userSpaceOnUse" id="l" xlink:href="#e"/><radialGradient r="2.5" fy="43.5" fx="4.996" cy="43.5" cx="4.996" gradientTransform="matrix(1.60303 0 0 .6 17.99 1023.679)" gradientUnits="userSpaceOnUse" id="k" xlink:href="#f"/><linearGradient id="h"><stop offset="0" stop-color="#f4f4f4"/><stop offset="1" stop-color="#dbdbdb"/></linearGradient><linearGradient id="g"><stop offset="0" stop-color="#fff"/><stop offset=".036" stop-color="#fff" stop-opacity=".235"/><stop offset=".951" stop-color="#fff" stop-opacity=".157"/><stop offset="1" stop-color="#fff" stop-opacity=".392"/></linearGradient><linearGradient y2="43" x2="24" y1="5.564" x1="24" gradientTransform="matrix(.35135 0 0 .45946 7.567 3.974)" gradientUnits="userSpaceOnUse" id="s" xlink:href="#g"/><linearGradient y2="47.013" x2="25.132" y1=".985" x1="25.132" gradientTransform="matrix(.4 0 0 .39111 6.4 5.014)" gradientUnits="userSpaceOnUse" id="r" xlink:href="#h"/><linearGradient y2="1015.362" x2="32" y1="1017.87" x1="32" spreadMethod="reflect" gradientTransform="matrix(.45455 0 0 1 1 22)" gradientUnits="userSpaceOnUse" id="u" xlink:href="#i"/><linearGradient x1="22.004" y1="47.813" x2="22.004" y2="3.364" id="t" xlink:href="#j" gradientUnits="userSpaceOnUse" gradientTransform="matrix(.48571 0 0 .47721 2.694 2.638)"/><linearGradient id="j"><stop offset="0" stop-color="#aaa"/><stop offset="1" stop-color="#c8c8c8"/></linearGradient></defs><path opacity=".4" fill="url(#k)" d="M26 1048.279h4v3h-4z" transform="translate(0 -1020.362)"/><path transform="rotate(180 0 -510.181)" opacity=".4" fill="url(#l)" d="M-6-1051.362h4v3h-4z"/><path opacity=".4" fill="url(#m)" d="M6 1048.362h20v3H6z" transform="translate(0 -1020.362)"/><rect y=".5" x="3.5" ry="2" rx="2" height="29" width="25" fill="url(#n)"/><rect width="21" height="25" rx="1" ry="1" x="5.5" y="2.5" opacity=".35" fill="none" stroke="url(#o)"/><rect width="25" height="29" rx="2" ry="2" x="3.5" y=".5" opacity=".4" fill="none" stroke="#000"/><rect width="23" height="27" rx="1" ry="1" x="4.5" y="1.5" fill="none" stroke="url(#p)" stroke-linecap="round" stroke-linejoin="round"/><path style="marker:none" color="#000" overflow="visible" opacity=".9" fill="url(#q)" d="M6.5 3.5h19v23h-19z"/><path d="M9 6.001h14V24H9V6z" fill="url(#r)"/><path d="M22.5 23.501h-13v-17h13z" fill="none" stroke="url(#s)" stroke-linecap="round"/><path d="M10 8.465h2.476zm2.628 0h.41zm.576 0h.911zm1.093 0h2.399zm2.55 0h1.837zm1.989 0h.561zM10 10.458h3.113zm3.265 0h1.2zm1.351 0h1.123zm1.275 0h.956zm1.108 0l1.503.015zm1.64.015h2.443zM10 12.465h2.886zm0 1.993h3.113zm3.265 0h1.2zm1.351 0h1.123zm1.275 0h.956zm1.108 0l1.503.015zm1.64.015h2.443zM10 16.465h3.493zm3.645 0h.895zm1.047 0h2.11zm2.246 0h1.442zm1.61 0h.576zm.728 0h.319zm.486 0h.895zM10 19.458h3.113zm3.265 0h1.2zm1.351 0h1.123zm1.275 0h.956zm1.108 0l1.503.015zm1.64.015h2.443zM10 21.465h1.641zm1.793 0h1.35zm1.503 0h1.988zm2.155 0h1.35zm1.487 0h.289zm.44 0h1.716zm1.898 0h.895z" fill="none" stroke="url(#t)"/><path d="M8.5 5.501h15V24.5h-15v-19z" opacity=".3" fill="none" stroke="#000" stroke-linejoin="round"/><g><path opacity=".8" fill="url(#u)" d="M6 1037.362h20v5H6z" transform="translate(0 -1022.362)"/><path opacity=".8" fill="#fff" d="M6 17h20v1H6z"/></g><path opacity=".7" fill="none" stroke="#000" stroke-linejoin="round" d="M6.5 3.5h19v23h-19z"/></svg>
